<?xml version="1.0" encoding="UTF-8" standalone="no"?>
<svg
   xmlns:dc="http://purl.org/dc/elements/1.1/"
   xmlns:cc="http://creativecommons.org/ns#"
   xmlns:rdf="http://www.w3.org/1999/02/22-rdf-syntax-ns#"
   xmlns:svg="http://www.w3.org/2000/svg"
   xmlns="http://www.w3.org/2000/svg"
   xmlns:sodipodi="http://sodipodi.sourceforge.net/DTD/sodipodi-0.dtd"
   xmlns:inkscape="http://www.inkscape.org/namespaces/inkscape"
   width="512"
   height="512"
   viewBox="0 0 512 512"
   fill="none"
   stroke="currentColor"
   stroke-width="2"
   stroke-linecap="round"
   stroke-linejoin="round"
   class="feather feather-list"
   version="1.1"
   id="svg14"
   sodipodi:docname="favicon.svg"
   inkscape:version="0.92.5 (2060ec1f9f, 2020-04-08)"
   inkscape:export-filename="/home/dmpop/Documents/crudo/favicon.png"
   inkscape:export-xdpi="96"
   inkscape:export-ydpi="96">
  <metadata
     id="metadata20">
    <rdf:RDF>
      <cc:Work
         rdf:about="">
        <dc:format>image/svg+xml</dc:format>
        <dc:type
           rdf:resource="http://purl.org/dc/dcmitype/StillImage" />
        <dc:title />
      </cc:Work>
    </rdf:RDF>
  </metadata>
  <defs
     id="defs18" />
  <sodipodi:namedview
     pagecolor="#ffffff"
     bordercolor="#666666"
     borderopacity="1"
     objecttolerance="10"
     gridtolerance="10"
     guidetolerance="10"
     inkscape:pageopacity="0"
     inkscape:pageshadow="2"
     inkscape:window-width="2560"
     inkscape:window-height="1377"
     id="namedview16"
     showgrid="false"
     inkscape:zoom="0.61458333"
     inkscape:cx="-42.276946"
     inkscape:cy="191.03668"
     inkscape:window-x="0"
     inkscape:window-y="0"
     inkscape:window-maximized="1"
     inkscape:current-layer="svg14"
     inkscape:document-rotation="0"
     showguides="false"
     fit-margin-top="0"
     fit-margin-left="0"
     fit-margin-right="0"
     fit-margin-bottom="0" />
  <g
     id="g823"
     transform="translate(-7.5000003e-7,-11.389828)">
    <path
       style="opacity:0.91000001;fill:#eeaaff;fill-opacity:1;stroke:none;stroke-width:29.78913307;stroke-miterlimit:4;stroke-dasharray:none;stroke-opacity:1"
       d="M 506,264.72443 C 506,437.88854 366.0712,503.01585 228.00001,503.01587 89.928838,503.01588 6.0000015,437.88856 6.0000015,264.72443 6.0000015,91.560333 128.57289,31.763762 266.64411,31.763786 404.71529,31.7638 506,91.560364 506,264.72443 Z"
       id="path822"
       inkscape:connector-curvature="0"
       sodipodi:nodetypes="sssss" />
    <path
       inkscape:connector-curvature="0"
       sodipodi:nodetypes="ccsccc"
       d="m 53.767547,277.562 c -14.326971,120.49458 77.917543,170.49243 174.184963,171.20922 0,0 45.36805,-80.09684 0,-170.1746 -53.15947,-105.54753 0,-172.977 0,-172.977 -96.41345,0.71809 -174.184736,77.3244 -174.184963,171.57581 -1.37e-4,0.12222 -1.37e-4,0.24438 0,0.36657 z"
       style="fill:#ff60f6;fill-opacity:1;stroke:none;stroke-width:13.4532814"
       id="path832" />
    <path
       inkscape:connector-curvature="0"
       sodipodi:nodetypes="ccscc"
       d="M 416.64386,304.74626 C 412.12634,159.95838 344.10841,106.3364 247.84098,105.61961 c 0,0 -45.36804,80.09684 0,170.1746 53.15947,105.54753 0,172.97702 0,172.97702 135.46192,4.02656 162.19071,-40.41888 168.80288,-144.02497 z"
       style="fill:#d42aff;fill-opacity:1;stroke:none;stroke-width:13.4532814"
       id="path832-7" />
  </g>
</svg>
