<?xml version="1.0" encoding="UTF-8" standalone="no"?>
<svg
   xmlns:dc="http://purl.org/dc/elements/1.1/"
   xmlns:cc="http://creativecommons.org/ns#"
   xmlns:rdf="http://www.w3.org/1999/02/22-rdf-syntax-ns#"
   xmlns:svg="http://www.w3.org/2000/svg"
   xmlns="http://www.w3.org/2000/svg"
   xmlns:sodipodi="http://sodipodi.sourceforge.net/DTD/sodipodi-0.dtd"
   xmlns:inkscape="http://www.inkscape.org/namespaces/inkscape"
   width="512"
   height="512"
   viewBox="0 0 512 512"
   fill="none"
   stroke="currentColor"
   stroke-width="2"
   stroke-linecap="round"
   stroke-linejoin="round"
   class="feather feather-list"
   version="1.1"
   id="svg14"
   sodipodi:docname="favicon.svg"
   inkscape:version="0.92.5 (2060ec1f9f, 2020-04-08)"
   inkscape:export-filename="/home/dmpop/Documents/crudo/favicon.png"
   inkscape:export-xdpi="96"
   inkscape:export-ydpi="96">
  <metadata
     id="metadata20">
    <rdf:RDF>
      <cc:Work
         rdf:about="">
        <dc:format>image/svg+xml</dc:format>
        <dc:type
           rdf:resource="http://purl.org/dc/dcmitype/StillImage" />
        <dc:title />
      </cc:Work>
    </rdf:RDF>
  </metadata>
  <defs
     id="defs18" />
  <sodipodi:namedview
     pagecolor="#ffffff"
     bordercolor="#666666"
     borderopacity="1"
     objecttolerance="10"
     gridtolerance="10"
     guidetolerance="10"
     inkscape:pageopacity="0"
     inkscape:pageshadow="2"
     inkscape:window-width="1366"
     inkscape:window-height="705"
     id="namedview16"
     showgrid="false"
     inkscape:zoom="0.61458333"
     inkscape:cx="240.8417"
     inkscape:cy="191.03668"
     inkscape:window-x="0"
     inkscape:window-y="0"
     inkscape:window-maximized="1"
     inkscape:current-layer="svg14"
     inkscape:document-rotation="0"
     showguides="false"
     fit-margin-top="0"
     fit-margin-left="0"
     fit-margin-right="0"
     fit-margin-bottom="0" />
  <path
     sodipodi:nodetypes="sssss"
     inkscape:connector-curvature="0"
     id="path822"
     d="M 506,272.95205 C 506,440.13723 366.0712,503.01585 228.00001,503.01587 89.928838,503.01588 6.0000015,440.13725 6.0000015,272.95205 6.0000015,105.76689 113.92882,8.9841012 252.00004,8.9841256 390.07122,8.9841383 506,105.76692 506,272.95205 Z"
     style="opacity:0.91000001;fill:#9d002d;fill-opacity:1;stroke:none;stroke-width:29.27034187;stroke-miterlimit:4;stroke-dasharray:none;stroke-opacity:1" />
  <path
     id="path832"
     style="fill:#ff60f6;stroke:none;stroke-width:13.4532814;fill-opacity:1"
     d="M 261.88654,75.468427 C 141.39196,61.141456 91.394105,153.38597 90.677324,249.65339 c 0,0 80.096836,45.36805 170.174596,0 105.54753,-53.15947 172.977,0 172.977,0 -0.71809,-96.41345 -77.3244,-174.184736 -171.57581,-174.184963 -0.12222,-1.37e-4 -0.24438,-1.37e-4 -0.36657,0 z"
     sodipodi:nodetypes="ccsccc"
     inkscape:connector-curvature="0" />
  <path
     id="path832-7"
     style="fill:#ffb402;stroke:none;stroke-width:13.4532814;fill-opacity:1"
     d="m 234.70228,438.34474 c 144.78788,-4.51752 198.40986,-72.53545 199.12665,-168.80288 0,0 -80.09684,-45.36804 -170.1746,0 -105.54753,53.15947 -172.977016,0 -172.977016,0 -4.026564,135.46192 40.418876,162.19071 144.024966,168.80288 z"
     sodipodi:nodetypes="ccscc"
     inkscape:connector-curvature="0" />
</svg>
